HIERARCHY
ROOT hip
{
	OFFSET 0.000000 0.000000 0.000000
	CHANNELS 6 Xposition Yposition Zposition Zrotation Yrotation Xrotation 
	JOINT lhipjoint
	{
		OFFSET 0.000000 0.000000 0.000000
		CHANNELS 3 Zrotation Yrotation Xrotation
		JOINT lfemur
		{
			OFFSET 1.363060 -1.794630 0.839290
			CHANNELS 3 Zrotation Yrotation Xrotation
			JOINT ltibia
			{
				OFFSET 2.448110 -6.726130 0.000000
				CHANNELS 3 Zrotation Yrotation Xrotation
				JOINT lfoot
				{
					OFFSET 2.562200 -7.039590 0.000000
					CHANNELS 3 Zrotation Yrotation Xrotation
					JOINT ltoes
					{
						OFFSET 0.157640 -0.433110 2.322550
						CHANNELS 3 Zrotation Yrotation Xrotation
						End Site
						{
							OFFSET 0.000000 0.000000 0.000000
						}
					}
				}
			}
		}
	}
	JOINT rhipjoint
	{
		OFFSET 0.000000 0.000000 0.000000
		CHANNELS 3 Zrotation Yrotation Xrotation
		JOINT rfemur
		{
			OFFSET -1.305520 -1.794630 0.839290
			CHANNELS 3 Zrotation Yrotation Xrotation
			JOINT rtibia
			{
				OFFSET -2.542530 -6.985550 0.000000
				CHANNELS 3 Zrotation Yrotation Xrotation
				JOINT rfoot
				{
					OFFSET -2.568260 -7.056230 0.000000
					CHANNELS 3 Zrotation Yrotation Xrotation
					JOINT rtoes
					{
						OFFSET -0.164730 -0.452590 2.363150
						CHANNELS 3 Zrotation Yrotation Xrotation
						End Site
						{
							OFFSET 0.000000 0.000000 0.000000
						}
					}
				}
			}
		}
	}
	JOINT lowerback
	{
		OFFSET 0.000000 0.000000 0.000000
		CHANNELS 3 Zrotation Yrotation Xrotation
		JOINT upperback
		{
			OFFSET 0.028270 2.035590 -0.193380
			CHANNELS 3 Zrotation Yrotation Xrotation
			JOINT thorax
			{
				OFFSET 0.056720 2.048850 -0.042750
				CHANNELS 3 Zrotation Yrotation Xrotation
				JOINT lowerneck
				{
					OFFSET 0.000000 0.000000 0.000000
					CHANNELS 3 Zrotation Yrotation Xrotation
					JOINT upperneck
					{
						OFFSET -0.054170 1.746240 0.172020
						CHANNELS 3 Zrotation Yrotation Xrotation
						JOINT head
						{
							OFFSET 0.104070 1.761360 -0.123970
							CHANNELS 3 Zrotation Yrotation Xrotation
							End Site
							{
								OFFSET 0.000000 0.000000 0.000000
							}
						}
					}
				}
				JOINT lclavicle
				{
					OFFSET 0.000000 0.000000 0.000000
					CHANNELS 3 Zrotation Yrotation Xrotation
					JOINT lhumerus
					{
						OFFSET 3.362410 1.200890 -0.311210
						CHANNELS 3 Zrotation Yrotation Xrotation
						JOINT lradius
						{
							OFFSET 4.983000 -0.000000 -0.000000
							CHANNELS 3 Zrotation Yrotation Xrotation
							JOINT lwrist
							{
								OFFSET 3.483560 -0.000000 -0.000000
								CHANNELS 3 Zrotation Yrotation Xrotation
								JOINT lhand
								{
									OFFSET 0.000000 0.000000 0.000000
									CHANNELS 3 Zrotation Yrotation Xrotation
									JOINT lfingers
									{
										OFFSET 0.715260 -0.000000 -0.000000
										CHANNELS 3 Zrotation Yrotation Xrotation
										End Site
										{
											OFFSET 0.000000 0.000000 0.000000
										}
									}
								}
								JOINT lthumb
								{
									OFFSET 0.000000 0.000000 0.000000
									CHANNELS 3 Zrotation Yrotation Xrotation
									End Site
									{
										OFFSET 0.000000 0.000000 0.000000
									}
								}
							}
						}
					}
				}
				JOINT rclavicle
				{
					OFFSET 0.000000 0.000000 0.000000
					CHANNELS 3 Zrotation Yrotation Xrotation
					JOINT rhumerus
					{
						OFFSET -3.136600 1.374050 -0.404650
						CHANNELS 3 Zrotation Yrotation Xrotation
						JOINT rradius
						{
							OFFSET -5.241900 -0.000000 -0.000000
							CHANNELS 3 Zrotation Yrotation Xrotation
							JOINT rwrist
							{
								OFFSET -3.444170 -0.000000 -0.000000
								CHANNELS 3 Zrotation Yrotation Xrotation
								JOINT rhand
								{
									OFFSET 0.000000 0.000000 0.000000
									CHANNELS 3 Zrotation Yrotation Xrotation
									JOINT rfingers
									{
										OFFSET -0.622530 -0.000000 -0.000000
										CHANNELS 3 Zrotation Yrotation Xrotation
										End Site
										{
											OFFSET 0.000000 0.000000 0.000000
										}
									}
								}
								JOINT rthumb
								{
									OFFSET 0.000000 0.000000 0.000000
									CHANNELS 3 Zrotation Yrotation Xrotation
									End Site
									{
										OFFSET 0.000000 0.000000 0.000000
									}
								}
							}
						}
					}
				}
			}
		}
	}
}
MOTION
Frames: 4
Frame Time: 0.008333
-19.567346 19.851911 -0.523053 1.154508 -76.737560 1.086640 7.389053 5.801697 2.374234 -22.626582 -12.792052 -18.015889 -0.112334 8.200588 27.948524 5.238105 -12.592274 23.652066 0.016100 -0.819000 -2.251000 -9.193312 -7.037411 0.624124 26.005526 -7.435533 -14.801359 -1.834054 -7.578960 28.814577 -4.153941 17.294593 11.877772 -0.047000 -1.398600 3.846100 0.086368 7.511697 -8.240073 -0.366599 10.205171 0.291724 -2.729315 5.933594 15.007766 1.391079 -9.176590 -6.430440 3.339873 -13.689131 17.387775 -0.337500 -6.294600 5.543900 4.366871 2.738202 3.702166 -79.756625 0.044149 39.153509 9.186911 -30.507035 -2.280455 -0.238031 -0.077595 26.929762 13.711249 -6.416147 -1.536500 -7.125000 0.000000 0.000000 -9.472700 23.580800 4.957800 -0.516737 -1.357323 3.014456 51.327708 46.797508 26.386626 -13.722871 30.050278 -4.051503 -1.537746 -1.683176 15.545863 -23.608118 13.492122 -6.483600 7.125000 0.000000 0.000000 3.402000 -12.921600 2.559700 
-19.594232 19.851398 -0.512381 1.149627 -76.704446 1.098406 7.386273 5.803132 2.373360 -22.655627 -12.637128 -18.008734 -0.106530 8.207608 28.002373 5.273744 -12.811041 23.595885 0.016100 -0.819800 -2.253100 -9.198581 -7.043516 0.629113 25.996947 -7.240484 -14.585295 -1.828053 -7.554372 28.749702 -4.141972 17.121775 11.611601 -0.040500 -1.298600 3.570700 -0.191657 7.486901 -8.257658 -0.378193 10.204947 0.295553 -2.699604 5.920833 15.000538 1.369700 -9.210167 -6.423601 3.445831 -13.776010 17.431040 -0.281300 -6.334700 5.596500 4.318857 2.716715 3.702712 -79.517603 -0.292153 39.678645 9.431400 -30.725595 -2.333879 -0.219645 -0.069659 26.530697 13.958303 -6.334017 -1.547400 -7.125000 0.000000 0.000000 -9.303200 23.640000 4.853900 -0.509313 -1.351367 2.991211 51.062689 46.669213 26.610824 -13.697067 30.044696 -4.061947 -1.545594 -1.686235 15.286663 -24.036668 13.683368 -6.697400 7.125000 0.000000 0.000000 3.139000 -12.649700 2.379000 
-19.621837 19.850679 -0.502016 1.139869 -76.694421 1.092750 7.382467 5.806611 2.373045 -22.679594 -12.475192 -17.970936 -0.099361 8.210885 28.051447 5.298215 -12.962042 23.588241 0.013200 -0.741800 -2.038500 -9.205671 -7.049100 0.635893 25.989059 -6.980908 -14.325483 -1.822467 -7.529314 28.688188 -4.122284 16.888591 11.351153 -0.038200 -1.261300 3.468000 -0.465068 7.474951 -8.256457 -0.391718 10.221376 0.299300 -2.690057 5.918898 14.978582 1.386724 -9.247785 -6.392529 3.548100 -13.867441 17.463124 -0.235100 -6.375700 5.627800 4.277146 2.692893 3.704346 -79.282086 -0.632754 40.119096 9.638145 -30.899154 -2.378862 -0.200386 -0.065213 26.262109 14.258427 -6.281397 -1.570100 -7.125000 0.000000 0.000000 -9.095300 23.671100 4.736100 -0.497429 -1.338797 2.974304 50.792519 46.490074 26.855645 -13.727682 30.089333 -4.081291 -1.551386 -1.686039 15.005560 -24.349062 13.883850 -6.878000 7.125000 0.000000 0.000000 2.955000 -12.388600 2.255300 
-19.648723 19.850679 -0.490523 1.050356 -76.652711 1.164349 7.377187 5.808678 2.371807 -22.684466 -12.329380 -17.922935 -0.093432 8.211641 28.093974 5.327121 -13.142747 23.551008 0.011400 -0.690300 -1.897100 -9.212687 -7.058255 0.638813 26.002684 -6.801502 -14.082801 -1.818100 -7.504775 28.628460 -4.106046 16.686155 11.070325 -0.030700 -1.131500 3.110800 -0.725628 7.437687 -8.261815 -0.399470 10.199692 0.303567 -2.658200 5.895260 14.972622 1.398731 -9.279420 -6.399503 3.628468 -13.951302 17.529261 -0.209300 -6.408800 5.687700 4.236919 2.666417 3.703153 -79.067743 -0.969150 40.556070 9.846189 -31.077457 -2.426000 -0.180509 -0.055283 25.945349 14.568127 -6.129784 -1.569400 -7.125000 0.000000 0.000000 -8.883400 23.797200 4.597000 -0.475736 -1.318915 2.952788 50.460734 46.234646 27.286735 -13.927687 30.271265 -4.125176 -1.544820 -1.689303 14.616888 -24.473682 13.988925 -6.959300 7.125000 0.000000 0.000000 2.883800 -12.261600 2.208400 
